<svg xmlns="http://www.w3.org/2000/svg" style="display: none;">
  
  <!-- Dashboard Icon - Unique hexagon grid design -->
  <symbol id="icon-dashboard" viewBox="0 0 24 24">
    <path d="M12 2L3 7v10l9 5 9-5V7l-9-5zm0 2.18l6.5 3.61v7.22L12 18.82l-6.5-3.61V7.79L12 4.18z" fill="currentColor"/>
    <circle cx="12" cy="12" r="2.5" fill="currentColor"/>
    <circle cx="8" cy="8" r="1.2" fill="currentColor"/>
    <circle cx="16" cy="8" r="1.2" fill="currentColor"/>
    <circle cx="8" cy="16" r="1.2" fill="currentColor"/>
    <circle cx="16" cy="16" r="1.2" fill="currentColor"/>
  </symbol>

  <!-- Create Bot Icon - Unique robot with antenna design -->
  <symbol id="icon-create-bot" viewBox="0 0 24 24">
    <path d="M12 2v2M12 4c-3.31 0-6 2.69-6 6v8c0 1.1.9 2 2 2h8c1.1 0 2-.9 2-2v-8c0-3.31-2.69-6-6-6z" stroke="currentColor" stroke-width="1.5" fill="none" stroke-linecap="round"/>
    <circle cx="9" cy="12" r="1.5" fill="currentColor"/>
    <circle cx="15" cy="12" r="1.5" fill="currentColor"/>
    <path d="M9 16h6" stroke="currentColor" stroke-width="1.5" stroke-linecap="round"/>
    <circle cx="12" cy="2" r="1" fill="currentColor"/>
    <path d="M6 10h-2M18 10h2M6 14h-2M18 14h2" stroke="currentColor" stroke-width="1.5" stroke-linecap="round"/>
  </symbol>

  <!-- Templates Icon - Unique layered cards design -->
  <symbol id="icon-templates" viewBox="0 0 24 24">
    <rect x="4" y="6" width="14" height="12" rx="2" fill="none" stroke="currentColor" stroke-width="1.5"/>
    <rect x="6" y="4" width="14" height="12" rx="2" fill="none" stroke="currentColor" stroke-width="1.5"/>
    <path d="M9 10h6M9 13h4" stroke="currentColor" stroke-width="1.5" stroke-linecap="round"/>
    <circle cx="17" cy="8" r="1.5" fill="currentColor"/>
  </symbol>

  <!-- Profile Icon - Unique geometric user design -->
  <symbol id="icon-profile" viewBox="0 0 24 24">
    <circle cx="12" cy="8" r="4" fill="none" stroke="currentColor" stroke-width="1.5"/>
    <path d="M5 20c0-3.87 3.13-7 7-7s7 3.13 7 7" fill="none" stroke="currentColor" stroke-width="1.5" stroke-linecap="round"/>
    <path d="M12 12v-1M9.5 9.5l-.7-.7M14.5 9.5l.7-.7" stroke="currentColor" stroke-width="1.2" stroke-linecap="round"/>
  </symbol>

  <!-- Settings Icon - Unique gear with nodes design -->
  <symbol id="icon-settings" viewBox="0 0 24 24">
    <circle cx="12" cy="12" r="3" fill="none" stroke="currentColor" stroke-width="1.5"/>
    <path d="M12 2v3M12 19v3M22 12h-3M5 12H2M19.07 4.93l-2.12 2.12M7.05 16.95l-2.12 2.12M19.07 19.07l-2.12-2.12M7.05 7.05L4.93 4.93" stroke="currentColor" stroke-width="1.5" stroke-linecap="round"/>
    <circle cx="12" cy="2" r="1" fill="currentColor"/>
    <circle cx="12" cy="22" r="1" fill="currentColor"/>
    <circle cx="22" cy="12" r="1" fill="currentColor"/>
    <circle cx="2" cy="12" r="1" fill="currentColor"/>
  </symbol>

  <!-- Analytics Icon - Unique chart with trend design -->
  <symbol id="icon-analytics" viewBox="0 0 24 24">
    <rect x="3" y="3" width="18" height="18" rx="2" fill="none" stroke="currentColor" stroke-width="1.5"/>
    <path d="M7 15v-3M12 15v-6M17 15v-8" stroke="currentColor" stroke-width="2" stroke-linecap="round"/>
    <circle cx="7" cy="12" r="1.5" fill="currentColor"/>
    <circle cx="12" cy="9" r="1.5" fill="currentColor"/>
    <circle cx="17" cy="7" r="1.5" fill="currentColor"/>
    <path d="M7 12l5-3 5-2" stroke="currentColor" stroke-width="1" fill="none"/>
  </symbol>

  <!-- Users Icon - Unique connected people design -->
  <symbol id="icon-users" viewBox="0 0 24 24">
    <circle cx="9" cy="7" r="3" fill="none" stroke="currentColor" stroke-width="1.5"/>
    <circle cx="15" cy="7" r="3" fill="none" stroke="currentColor" stroke-width="1.5"/>
    <path d="M3 18c0-2.5 2.5-4.5 5-4.5h2c.5 0 1 .1 1.5.2M21 18c0-2.5-2.5-4.5-5-4.5h-2c-.5 0-1 .1-1.5.2" fill="none" stroke="currentColor" stroke-width="1.5" stroke-linecap="round"/>
    <line x1="9" y1="13" x2="15" y2="13" stroke="currentColor" stroke-width="1.5"/>
  </symbol>

  <!-- Webapp Icon - Unique mobile device design -->
  <symbol id="icon-webapp" viewBox="0 0 24 24">
    <rect x="6" y="2" width="12" height="20" rx="2" fill="none" stroke="currentColor" stroke-width="1.5"/>
    <rect x="8" y="5" width="8" height="12" rx="1" fill="none" stroke="currentColor" stroke-width="1.2"/>
    <circle cx="12" cy="20" r="1" fill="currentColor"/>
    <path d="M10 8h4M10 11h4M10 14h3" stroke="currentColor" stroke-width="1.2" stroke-linecap="round"/>
  </symbol>

  <!-- Logout Icon - Unique exit arrow design -->
  <symbol id="icon-logout" viewBox="0 0 24 24">
    <path d="M9 3H5a2 2 0 0 0-2 2v14a2 2 0 0 0 2 2h4" fill="none" stroke="currentColor" stroke-width="1.5" stroke-linecap="round"/>
    <path d="M16 17l5-5-5-5M21 12H9" stroke="currentColor" stroke-width="1.5" stroke-linecap="round" stroke-linejoin="round"/>
    <circle cx="16" cy="7" r="1" fill="currentColor"/>
    <circle cx="21" cy="12" r="1.5" fill="currentColor"/>
    <circle cx="16" cy="17" r="1" fill="currentColor"/>
  </symbol>

  <!-- Commands Icon - Unique terminal with code design -->
  <symbol id="icon-commands" viewBox="0 0 24 24">
    <rect x="2" y="4" width="20" height="16" rx="2" fill="none" stroke="currentColor" stroke-width="1.5"/>
    <path d="M6 9l3 3-3 3M11 15h6" stroke="currentColor" stroke-width="1.5" stroke-linecap="round" stroke-linejoin="round"/>
    <circle cx="6" cy="7" r="0.5" fill="currentColor"/>
    <circle cx="8" cy="7" r="0.5" fill="currentColor"/>
    <circle cx="10" cy="7" r="0.5" fill="currentColor"/>
  </symbol>

  <!-- Mining Icon - Unique pickaxe with gems design -->
  <symbol id="icon-mining" viewBox="0 0 24 24">
    <path d="M14 3l-2 2 6 6 2-2-6-6z" fill="none" stroke="currentColor" stroke-width="1.5" stroke-linejoin="round"/>
    <path d="M12 5L5 12l7 7 7-7-7-7z" fill="none" stroke="currentColor" stroke-width="1.5" stroke-linejoin="round"/>
    <path d="M12 12l-4 4M12 12l4 4M12 12l0-4M12 12l4-4M12 12l-4-4" stroke="currentColor" stroke-width="1" opacity="0.6"/>
    <circle cx="16" cy="5" r="1" fill="currentColor"/>
  </symbol>

  <!-- Shop Icon - Unique storefront design -->
  <symbol id="icon-shop" viewBox="0 0 24 24">
    <path d="M3 9l2-6h14l2 6-2 2H5L3 9z" fill="none" stroke="currentColor" stroke-width="1.5" stroke-linejoin="round"/>
    <path d="M5 11v9a2 2 0 0 0 2 2h10a2 2 0 0 0 2-2v-9M9 15h6" stroke="currentColor" stroke-width="1.5" stroke-linecap="round"/>
    <circle cx="8" cy="7" r="1" fill="currentColor"/>
    <circle cx="12" cy="7" r="1" fill="currentColor"/>
    <circle cx="16" cy="7" r="1" fill="currentColor"/>
    <rect x="10" y="17" width="4" height="3" rx="0.5" fill="currentColor"/>
  </symbol>

  <!-- Tasks Icon - Unique checklist design -->
  <symbol id="icon-tasks" viewBox="0 0 24 24">
    <rect x="4" y="3" width="16" height="18" rx="2" fill="none" stroke="currentColor" stroke-width="1.5"/>
    <path d="M8 8l2 2 3-3M8 13l2 2 3-3M8 18h8" stroke="currentColor" stroke-width="1.5" stroke-linecap="round" stroke-linejoin="round"/>
    <circle cx="12" cy="3" r="1" fill="currentColor"/>
  </symbol>

  <!-- AI Brain Icon - Unique neural network design -->
  <symbol id="icon-ai" viewBox="0 0 24 24">
    <circle cx="12" cy="12" r="8" fill="none" stroke="currentColor" stroke-width="1.5"/>
    <circle cx="12" cy="8" r="1.5" fill="currentColor"/>
    <circle cx="8" cy="12" r="1.5" fill="currentColor"/>
    <circle cx="16" cy="12" r="1.5" fill="currentColor"/>
    <circle cx="10" cy="16" r="1.5" fill="currentColor"/>
    <circle cx="14" cy="16" r="1.5" fill="currentColor"/>
    <path d="M12 8v-1M8 12h-1M16 12h1M10 16l-1 1M14 16l1 1M12 8l-4 4M12 8l4 4M8 12l2 4M16 12l-2 4" stroke="currentColor" stroke-width="0.8" opacity="0.5"/>
  </symbol>

  <!-- Webhook Icon - Unique connection design -->
  <symbol id="icon-webhook" viewBox="0 0 24 24">
    <circle cx="6" cy="12" r="3" fill="none" stroke="currentColor" stroke-width="1.5"/>
    <circle cx="18" cy="6" r="3" fill="none" stroke="currentColor" stroke-width="1.5"/>
    <circle cx="18" cy="18" r="3" fill="none" stroke="currentColor" stroke-width="1.5"/>
    <path d="M8.5 13.5l7 3M8.5 10.5l7-3" stroke="currentColor" stroke-width="1.5"/>
    <circle cx="6" cy="12" r="1" fill="currentColor"/>
    <circle cx="18" cy="6" r="1" fill="currentColor"/>
    <circle cx="18" cy="18" r="1" fill="currentColor"/>
  </symbol>

  <!-- Plus/Add Icon - Unique cross design -->
  <symbol id="icon-add" viewBox="0 0 24 24">
    <circle cx="12" cy="12" r="9" fill="none" stroke="currentColor" stroke-width="1.5"/>
    <path d="M12 8v8M8 12h8" stroke="currentColor" stroke-width="2" stroke-linecap="round"/>
    <circle cx="12" cy="8" r="1" fill="currentColor"/>
    <circle cx="12" cy="16" r="1" fill="currentColor"/>
    <circle cx="8" cy="12" r="1" fill="currentColor"/>
    <circle cx="16" cy="12" r="1" fill="currentColor"/>
  </symbol>

  <!-- Delete/Trash Icon - Unique trash bin design -->
  <symbol id="icon-delete" viewBox="0 0 24 24">
    <path d="M8 6V4a2 2 0 0 1 2-2h4a2 2 0 0 1 2 2v2M4 6h16M19 6l-1 14a2 2 0 0 1-2 2H8a2 2 0 0 1-2-2L5 6" fill="none" stroke="currentColor" stroke-width="1.5" stroke-linecap="round"/>
    <path d="M10 11v6M14 11v6" stroke="currentColor" stroke-width="1.5" stroke-linecap="round"/>
  </symbol>

  <!-- Notification Icon - Unique bell design -->
  <symbol id="icon-notification" viewBox="0 0 24 24">
    <path d="M18 8A6 6 0 0 0 6 8c0 7-3 9-3 9h18s-3-2-3-9M13.73 21a2 2 0 0 1-3.46 0" stroke="currentColor" stroke-width="1.5" fill="none" stroke-linecap="round"/>
    <circle cx="12" cy="5" r="1.5" fill="currentColor"/>
    <circle cx="19" cy="8" r="1" fill="currentColor"/>
  </symbol>

</svg>
